<svg width="3093" height="1235" viewBox="0 0 3093 1235" fill="none" xmlns="http://www.w3.org/2000/svg">
<path d="M392.1 883.5C331.433 883.5 284.533 874.633 251.4 856.9C240.667 851.3 233.667 845.467 230.4 839.4C227.133 833.333 225.5 824.467 225.5 812.8V772.9C225.5 755.633 233.2 747 248.6 747C253.733 747 263.3 749.8 277.3 755.4C291.3 761 309.733 766.6 332.6 772.2C355.467 777.333 379.967 779.9 406.1 779.9C453.7 779.9 477.5 765.667 477.5 737.2C477.5 722.733 471.433 711.3 459.3 702.9C447.633 694.5 422.2 686.333 383 678.4L365.5 674.9C314.167 664.633 276.833 647.833 253.5 624.5C230.167 600.7 218.5 568.967 218.5 529.3C218.5 480.3 234.367 442.033 266.1 414.5C297.833 386.5 346.6 372.5 412.4 372.5C466.533 372.5 512.267 382.067 549.6 401.2C560.333 406.8 567.333 412.633 570.6 418.7C573.867 424.3 575.5 433.167 575.5 445.3V481.7C575.5 498.967 567.8 507.6 552.4 507.6C549.133 507.6 531.4 502.467 499.2 492.2C467.467 481.467 437.833 476.1 410.3 476.1C360.833 476.1 336.1 489.867 336.1 517.4C336.1 530.933 341.467 541.2 352.2 548.2C363.4 554.733 386.733 562.2 422.2 570.6L442.5 575.5C496.633 588.567 535.6 606.533 559.4 629.4C583.2 652.267 595.1 684.233 595.1 725.3C595.1 773.833 578.533 812.333 545.4 840.8C512.267 869.267 461.167 883.5 392.1 883.5ZM888.805 502C943.405 502 987.971 520.2 1022.5 556.6C1057.04 592.533 1074.3 638.5 1074.3 694.5C1074.3 749.1 1056.34 794.833 1020.4 831.7C984.938 868.567 940.605 887 887.405 887C848.671 887 815.071 876.5 786.605 855.5V1022.8C786.605 1039.6 779.605 1048 765.605 1048C710.538 1048 680.671 1044.5 676.005 1037.5C675.071 1036.1 674.605 992.933 674.605 908V534.2C674.605 517.4 681.838 509 696.305 509C735.971 509 756.505 509.467 757.905 510.4C766.305 516 767.471 530.7 761.405 554.5C774.005 539.567 791.738 527.2 814.605 517.4C837.471 507.133 862.205 502 888.805 502ZM873.405 786.2C898.138 786.2 918.905 777.8 935.705 761C952.505 744.2 960.905 722.033 960.905 694.5C960.905 667.433 952.505 645.5 935.705 628.7C918.905 611.433 898.138 602.8 873.405 602.8C848.671 602.8 827.905 611.433 811.105 628.7C794.771 645.5 786.605 667.433 786.605 694.5C786.605 722.033 795.005 744.2 811.805 761C828.605 777.8 849.138 786.2 873.405 786.2ZM1479.63 693.1C1479.63 705.7 1477.07 714.8 1471.93 720.4C1466.8 725.533 1457.47 728.1 1443.93 728.1H1226.93C1232.07 745.833 1243.5 760.533 1261.23 772.2C1278.97 783.4 1302.07 789 1330.53 789C1355.73 789 1379.07 785.967 1400.53 779.9C1422 773.833 1432.97 770.8 1433.43 770.8C1446.03 770.8 1452.33 777.567 1452.33 791.1V831.7C1452.33 847.1 1447.43 857.833 1437.63 863.9C1412.9 879.3 1373.47 887 1319.33 887C1261 887 1212.47 869.733 1173.73 835.2C1135.47 800.667 1116.33 753.767 1116.33 694.5C1116.33 640.833 1133.6 595.333 1168.13 558C1203.13 520.667 1246.77 502 1299.03 502C1356.9 502 1401.47 519.267 1432.73 553.8C1464 587.867 1479.63 634.3 1479.63 693.1ZM1300.43 595.8C1279.9 595.8 1263.1 601.4 1250.03 612.6C1237.43 623.333 1229.5 637.8 1226.23 656H1371.13C1368.8 637.8 1361.57 623.333 1349.43 612.6C1337.77 601.4 1321.43 595.8 1300.43 595.8ZM1899.7 509C1914.17 509 1921.4 517.4 1921.4 534.2V854.8C1921.4 871.6 1914.17 880 1899.7 880C1856.3 880 1834.37 877.667 1833.9 873C1833.9 859.933 1834.14 847.1 1834.6 834.5C1822 849.433 1804.27 862.033 1781.4 872.3C1758.54 882.1 1733.8 887 1707.2 887C1652.6 887 1608.04 869.033 1573.5 833.1C1538.97 796.7 1521.7 750.5 1521.7 694.5C1521.7 639.433 1538.97 593.7 1573.5 557.3C1608.5 520.433 1653.07 502 1707.2 502C1733.8 502 1758.54 507.133 1781.4 517.4C1804.27 527.2 1822 539.567 1834.6 554.5C1829 536.3 1832.04 521.367 1843.7 509.7C1844.17 509.233 1862.84 509 1899.7 509ZM1660.3 761C1677.1 777.8 1697.87 786.2 1722.6 786.2C1747.34 786.2 1767.87 777.8 1784.2 761C1801 743.733 1809.4 721.567 1809.4 694.5C1809.4 667.433 1801 645.5 1784.2 628.7C1767.87 611.433 1747.34 602.8 1722.6 602.8C1697.87 602.8 1677.1 611.433 1660.3 628.7C1643.5 645.5 1635.1 667.433 1635.1 694.5C1635.1 721.567 1643.5 743.733 1660.3 761ZM2366.63 843.6C2372.7 851.533 2373.63 858.533 2369.43 864.6C2365.7 870.2 2358.93 873 2349.13 873H2296.63C2273.3 873 2253.7 862.967 2237.83 842.9L2160.13 744.2L2123.03 781.3V835.9C2123.03 848.967 2120.23 858.533 2114.63 864.6C2109.03 870.2 2099.46 873 2085.93 873H2048.13C2034.6 873 2025.03 870.2 2019.43 864.6C2013.83 858.533 2011.03 848.967 2011.03 835.9V481C2011.03 397.467 2011.26 355.467 2011.73 355C2018.73 345.667 2048.83 341 2102.03 341C2116.03 341 2123.03 349.4 2123.03 366.2V656L2237.13 542.6C2247.86 531.867 2256.96 524.867 2264.43 521.6C2271.9 517.867 2283.56 516 2299.43 516H2350.53C2359.4 516 2365 519.267 2367.33 525.8C2369.66 531.867 2367.56 538.167 2361.03 544.7L2235.03 670L2366.63 843.6Z" fill="#FFFFFF"/>
<path d="M2418.66 486.452C2418.66 498.312 2504.09 458.922 2525.01 319.684L2435.51 292.154L2369.91 304.422C2386.57 366.188 2418.66 393.274 2418.66 486.452Z" fill="#0CBFF7"/>
<rect x="2348" y="187" width="564.326" height="250.617" rx="122" fill="#0CBFF7"/>
<path d="M2552.6 264.4C2556.32 264.4 2558.18 266.56 2558.18 270.88V353.32C2558.18 357.64 2556.32 359.8 2552.6 359.8C2541.44 359.8 2535.8 359.2 2535.68 358C2535.68 354.64 2535.74 351.34 2535.86 348.1C2532.62 351.94 2528.06 355.18 2522.18 357.82C2516.3 360.34 2509.94 361.6 2503.1 361.6C2489.06 361.6 2477.6 356.98 2468.72 347.74C2459.84 338.38 2455.4 326.5 2455.4 312.1C2455.4 297.94 2459.84 286.18 2468.72 276.82C2477.72 267.34 2489.18 262.6 2503.1 262.6C2509.94 262.6 2516.3 263.92 2522.18 266.56C2528.06 269.08 2532.62 272.26 2535.86 276.1C2534.42 271.42 2535.2 267.58 2538.2 264.58C2538.32 264.46 2543.12 264.4 2552.6 264.4ZM2491.04 329.2C2495.36 333.52 2500.7 335.68 2507.06 335.68C2513.42 335.68 2518.7 333.52 2522.9 329.2C2527.22 324.76 2529.38 319.06 2529.38 312.1C2529.38 305.14 2527.22 299.5 2522.9 295.18C2518.7 290.74 2513.42 288.52 2507.06 288.52C2500.7 288.52 2495.36 290.74 2491.04 295.18C2486.72 299.5 2484.56 305.14 2484.56 312.1C2484.56 319.06 2486.72 324.76 2491.04 329.2ZM2636.31 262.6C2650.35 262.6 2661.81 267.28 2670.69 276.64C2679.57 285.88 2684.01 297.7 2684.01 312.1C2684.01 326.14 2679.39 337.9 2670.15 347.38C2661.03 356.86 2649.63 361.6 2635.95 361.6C2625.99 361.6 2617.35 358.9 2610.03 353.5V396.52C2610.03 400.84 2608.23 403 2604.63 403C2590.47 403 2582.79 402.1 2581.59 400.3C2581.35 399.94 2581.23 388.84 2581.23 367V270.88C2581.23 266.56 2583.09 264.4 2586.81 264.4C2597.01 264.4 2602.29 264.52 2602.65 264.76C2604.81 266.2 2605.11 269.98 2603.55 276.1C2606.79 272.26 2611.35 269.08 2617.23 266.56C2623.11 263.92 2629.47 262.6 2636.31 262.6ZM2632.35 335.68C2638.71 335.68 2644.05 333.52 2648.37 329.2C2652.69 324.88 2654.85 319.18 2654.85 312.1C2654.85 305.14 2652.69 299.5 2648.37 295.18C2644.05 290.74 2638.71 288.52 2632.35 288.52C2625.99 288.52 2620.65 290.74 2616.33 295.18C2612.13 299.5 2610.03 305.14 2610.03 312.1C2610.03 319.18 2612.19 324.88 2616.51 329.2C2620.83 333.52 2626.11 335.68 2632.35 335.68ZM2756.01 262.6C2770.05 262.6 2781.51 267.28 2790.39 276.64C2799.27 285.88 2803.71 297.7 2803.71 312.1C2803.71 326.14 2799.09 337.9 2789.85 347.38C2780.73 356.86 2769.33 361.6 2755.65 361.6C2745.69 361.6 2737.05 358.9 2729.73 353.5V396.52C2729.73 400.84 2727.93 403 2724.33 403C2710.17 403 2702.49 402.1 2701.29 400.3C2701.05 399.94 2700.93 388.84 2700.93 367V270.88C2700.93 266.56 2702.79 264.4 2706.51 264.4C2716.71 264.4 2721.99 264.52 2722.35 264.76C2724.51 266.2 2724.81 269.98 2723.25 276.1C2726.49 272.26 2731.05 269.08 2736.93 266.56C2742.81 263.92 2749.17 262.6 2756.01 262.6ZM2752.05 335.68C2758.41 335.68 2763.75 333.52 2768.07 329.2C2772.39 324.88 2774.55 319.18 2774.55 312.1C2774.55 305.14 2772.39 299.5 2768.07 295.18C2763.75 290.74 2758.41 288.52 2752.05 288.52C2745.69 288.52 2740.35 290.74 2736.03 295.18C2731.83 299.5 2729.73 305.14 2729.73 312.1C2729.73 319.18 2731.89 324.88 2736.21 329.2C2740.53 333.52 2745.81 335.68 2752.05 335.68Z" fill="white"/>
</svg>
